PathFileType	4	(X/Y/Z)	Kaydara																																																																																																																									
DataRate	CameraRate	NumFrames	NumMarkers	Units	OrigDataRate	OrigDataStartFrame	OrigNumFrames																																																																																																																					
30	30	4	41	mm	30	136	148																																																																																																																					
Frame#	Time	SALE_LFHD			SALE_RFHD			SALE_LBHD			SALE_RBHD			SALE_LFTShould			SALE_RFTShould			SALE_LRRShould			SALE_RRRShould			SALE_T10			SALE_STRN			SALE_TRUN			SALE_LSHO			SALE_LUPA			SALE_LELB			SALE_LFRM			SALE_LWRA			SALE_LWRB			SALE_LFIN			SALE_RSHO			SALE_RUPA			SALE_RELB			SALE_RFRM			SALE_RWRB			SALE_RFIN			SALE_LFWT			SALE_RFWT			SALE_LBWT			SALE_RBWT			SALE_LTHI			SALE_LKNE			SALE_RWRA			SALE_LSHN			SALE_LANK			SALE_LHEE			SALE_LTOE			SALE_RTHI			SALE_RKNE			SALE_RSHN			SALE_RANK			SALE_RHEE			SALE_RTOE		
		X1	Y1	Z1	X2	Y2	Z2	X3	Y3	Z3	X4	Y4	Z4	X5	Y5	Z5	X6	Y6	Z6	X7	Y7	Z7	X8	Y8	Z8	X9	Y9	Z9	X10	Y10	Z10	X11	Y11	Z11	X12	Y12	Z12	X13	Y13	Z13	X14	Y14	Z14	X15	Y15	Z15	X16	Y16	Z16	X17	Y17	Z17	X18	Y18	Z18	X19	Y19	Z19	X20	Y20	Z20	X21	Y21	Z21	X22	Y22	Z22	X23	Y23	Z23	X24	Y24	Z24	X25	Y25	Z25	X26	Y26	Z26	X27	Y27	Z27	X28	Y28	Z28	X29	Y29	Z29	X30	Y30	Z30	X31	Y31	Z31	X32	Y32	Z32	X33	Y33	Z33	X34	Y34	Z34	X35	Y35	Z35	X36	Y36	Z36	X37	Y37	Z37	X38	Y38	Z38	X39	Y39	Z39	X40	Y40	Z40	X41	Y41	Z41
																																																																																																																												
112	4.5	187.51406	1576.74164	1085.18211	54.82194	1577.06451	1089.5137	179.47994	1556.82129	951.26602	51.40502	1555.28427	962.44125	193.78016	1312.6973	1047.78366	53.4971	1312.83157	1054.3811	181.21059	1369.22745	934.83696	31.59691	1375.56366	948.09189	99.83486	1219.15672	873.24409	119.22429	1241.32553	1097.37206	117.05678	1156.08017	1139.38499	302.35449	1339.78195	970.97824	329.19781	1136.16882	904.11423	299.91779	1031.49193	871.11374	334.42757	931.76979	840.37216	334.35642	770.32639	884.32121	349.4548	787.5853	810.91621	380.51704	735.40016	828.05649	-55.69713	1344.048	999.22386	-106.08149	1108.63083	976.55075	-132.55132	1020.86143	1047.66968	-124.13314	908.98949	1080.49095	-131.13531	802.89818	1180.83046	-131.24121	792.09084	1247.53098	240.23731	912.49283	1084.40262	-36.87031	909.552	1058.60657	202.57038	950.36575	906.94679	27.10834	964.81339	893.09555	239.94532	583.89233	1046.45363	219.42144	473.10219	1200.30968	-78.52315	837.61749	1223.17062	215.19886	287.45188	1275.01724	205.89714	98.67281	1302.40814	162.1957	28.42462	1262.42531	184.67133	102.13205	1444.51553	-18.07766	685.7341	867.10709	2.88176	509.60663	928.68759	69.51272	327.03846	842.54997	31.78285	121.32397	682.96402	76.87799	92.1616	591.06239	61.02984	48.50359	777.27402
113	4.533	191.25378	1575.39185	1128.32817	58.2519	1575.84198	1132.55722	183.28062	1552.87369	994.68689	55.13129	1551.68549	1005.71678	197.2834	1309.48227	1095.51308	56.72669	1309.74365	1101.9397	185.1178	1365.33875	981.68518	35.45647	1372.90283	994.3679	102.75957	1214.6624	921.77147	122.33051	1239.23706	1145.98541	119.62244	1154.52065	1189.04335	306.01274	1335.84274	1018.62701	332.55424	1133.95233	949.60152	304.21797	1029.55513	915.23689	339.76051	930.74593	882.59674	340.59326	767.78954	922.62558	356.25183	788.20808	850.01183	386.67381	735.11688	864.89182	-51.99705	1341.78131	1045.89905	-101.42105	1106.43402	1021.51154	-129.03469	1018.20145	1091.83121	-120.71013	906.37413	1125.19402	-128.5381	800.80452	1226.03706	-129.32231	790.34698	1292.78717	242.8046	911.74706	1137.59186	-34.88547	903.06679	1112.45445	203.26515	948.33488	959.45839	26.53555	959.37202	945.60501	238.19902	584.57478	1101.82854	217.83247	471.27537	1249.32343	-76.67821	835.85793	1268.35182	209.11903	279.86788	1312.61871	200.29308	92.06056	1326.95145	157.46241	34.58442	1274.72198	177.08332	74.75394	1464.07425	-15.71615	680.83504	918.12843	7.19927	503.69259	979.04083	69.62587	324.32228	878.65227	26.54625	135.39182	699.13048	70.05566	117.16177	605.40779	58.7531	46.94756	782.96822
114	4.567	194.41574	1582.49664	1171.59645	61.71094	1582.5827	1175.4348	187.5635	1557.80472	1039.00017	59.39045	1556.19736	1049.06456	200.65708	1314.11697	1143.09021	60.37702	1316.09009	1149.4384	189.35492	1369.33441	1028.87848	38.78676	1377.9776	1041.69632	105.5668	1218.24097	971.89049	125.49085	1244.30946	1194.56726	122.09669	1160.72693	1239.22813	309.91264	1337.8923	1066.10954	337.31976	1135.37148	998.38837	310.5324	1030.73891	963.89778	346.93748	932.53906	931.68755	346.45596	769.36951	970.90073	364.40331	790.52666	898.95912	393.67321	736.96205	914.02466	-49.14269	1346.23108	1093.43735	-95.89082	1109.2424	1066.19354	-124.85358	1020.62035	1134.51668	-116.94178	908.43163	1165.81528	-126.4373	800.26962	1263.36563	-128.26087	788.48099	1329.71085	242.92595	919.25575	1189.56169	-34.10819	901.65131	1163.93677	203.89179	955.80132	1011.51863	25.71095	959.2099	998.38669	242.04584	593.55011	1144.91966	217.10573	481.91708	1298.55087	-75.13576	834.24774	1307.41684	204.33487	279.6245	1348.17047	199.23229	89.4305	1340.45059	161.10752	37.50132	1281.81793	164.22489	57.57244	1477.1965	-10.34787	674.93217	976.63193	10.53187	497.54997	1042.87384	68.2761	321.69159	928.37448	23.02984	156.64548	725.81726	67.83641	153.60256	633.7011	57.40247	44.47162	789.86893
115	4.6	197.81055	1589.96124	1215.1931	65.24379	1590.26093	1218.20778	191.8803	1563.44589	1082.99149	63.70804	1562.06573	1092.2374	203.69892	1321.55045	1190.37842	63.74985	1324.59869	1197.3143	191.11851	1375.37003	1075.36209	41.83242	1386.02966	1088.9164	105.8222	1225.0824	1019.22684	128.34811	1253.40355	1241.98975	124.66819	1170.19432	1287.64252	311.60801	1345.21164	1112.23839	341.05125	1142.24182	1049.02184	315.93502	1037.01271	1015.23544	353.94379	938.27347	987.14951	353.38928	776.03035	1029.76807	373.57567	795.54726	957.99179	402.12311	741.71585	975.70755	-45.68299	1356.48865	1141.40808	-90.75821	1122.05383	1110.24551	-119.72713	1031.1129	1175.62401	-112.98186	917.31155	1201.57692	-125.14879	803.67012	1292.95212	-127.88167	787.5959	1358.30292	243.82549	932.65862	1237.43759	-32.04006	902.42905	1212.47543	200.20557	966.27274	1059.61388	24.37776	960.86365	1046.94763	253.0409	605.82947	1196.67847	217.37892	484.13025	1338.24097	-74.23027	834.54643	1339.73389	206.90359	279.00188	1370.30975	200.56953	89.77137	1347.96234	162.89909	39.82805	1285.33234	168.06164	51.75038	1483.54202	-3.42463	663.72818	1040.32555	8.71198	488.87486	1119.75525	61.97094	316.45191	994.56223	19.23048	181.77523	769.78645	65.8806	197.33391	684.5845	56.24214	45.56917	802.04346
